<svg xmlns="http://www.w3.org/2000/svg" viewBox="0 0 17.66 17.67"><g><g><path d="M17.22 7.76a1.52 1.52 0 0 1 0 2.15l-7.31 7.31a1.52 1.52 0 0 1-2.15 0L.44 9.91a1.52 1.52 0 0 1 0-2.15L7.76.45a1.52 1.52 0 0 1 2.15 0z" fill="gold"/><path d="M14.52 10.35a1.46 1.46 0 0 0-.24-.8A1.47 1.47 0 1 0 14.37 8a1.48 1.48 0 1 0-2.06.61H12a2.31 2.31 0 0 1-1.76-.82 2.25 2.25 0 0 1 0 2.12A2.31 2.31 0 0 1 12 9.07h.32a1.48 1.48 0 1 0 2.23 1.27zM4.93 5.88a3 3 0 0 0-2 .5A7.16 7.16 0 0 0 .6 8.83a7.53 7.53 0 0 0 2.29 2.45 3.49 3.49 0 0 0 1.7.54h.18a1.47 1.47 0 0 0 .61-2.73h.32a2.31 2.31 0 0 1 1.76.82 2.24 2.24 0 0 1 0-2.11 2.31 2.31 0 0 1-1.76.8h-.32a1.47 1.47 0 0 0-.3-2.67z" fill="#333333"/><path d="M5.72 12.62a3.13 3.13 0 0 0 .53 2.14 7.53 7.53 0 0 0 2.58 2.4 7.94 7.94 0 0 0 2.58-2.41A3.66 3.66 0 0 0 12 13a.84.84 0 0 0 0-.12 1.55 1.55 0 0 0-2.88-.64c-.26.35-.27.35-.52 0a1.54 1.54 0 0 0-2.81.31 1 1 0 0 0-.07.07zM12.12 4.54A4.65 4.65 0 0 1 10.55 3 22.33 22.33 0 0 1 8.89.48 22 22 0 0 1 7.19 3a5 5 0 0 1-1.65 1.5A4.64 4.64 0 0 1 7.11 6a22.4 22.4 0 0 1 1.66 2.6 21.77 21.77 0 0 1 1.7-2.55 5 5 0 0 1 1.65-1.5z" fill="#e60012"/></g></g></svg>