<?xml version="1.0" standalone="no"?><!DOCTYPE svg PUBLIC "-//W3C//DTD SVG 1.1//EN" "http://www.w3.org/Graphics/SVG/1.1/DTD/svg11.dtd"><svg t="1526916740464" class="icon" style="" viewBox="0 0 1024 1024" version="1.1" xmlns="http://www.w3.org/2000/svg" p-id="1903" xmlns:xlink="http://www.w3.org/1999/xlink" width="1024" height="1024"><defs><style type="text/css"></style></defs><path d="M894.997 638.935v147.688c0 12.309-4.313 22.772-12.923 31.383-8.617 8.618-19.081 12.923-31.383 12.923H171.328c-12.31 0-22.774-4.305-31.384-12.923-8.617-8.61-12.922-19.074-12.922-31.383V638.935c0-12.302 4.305-22.765 12.922-31.384 8.61-8.61 19.075-12.922 31.384-12.922h214.608l62.306 62.767c17.841 17.235 38.768 25.845 62.766 25.845 24 0 44.92-8.61 62.768-25.845l62.768-62.767H850.69c12.301 0 22.766 4.312 31.383 12.922 8.61 8.619 12.923 19.082 12.923 31.384zM745.003 376.328c5.228 12.62 3.072 23.387-6.461 32.307L531.779 615.397c-5.54 5.85-12.461 8.769-20.77 8.769-8.306 0-15.23-2.92-20.768-8.77L283.478 408.635c-9.54-8.92-11.696-19.687-6.46-32.307 5.227-12 14.306-17.999 27.228-17.999h118.15V151.566c0-7.997 2.92-14.92 8.769-20.769 5.841-5.841 12.765-8.769 20.769-8.769h118.15c7.996 0 14.92 2.928 20.768 8.769 5.842 5.848 8.768 12.77 8.768 20.769v206.762h118.152c12.923 0 21.994 6 27.23 18z m-36 386.757c5.842-5.841 8.77-12.765 8.77-20.77 0-7.996-2.928-14.92-8.77-20.767-5.848-5.842-12.771-8.77-20.768-8.77-8.004 0-14.928 2.928-20.77 8.77-5.848 5.848-8.768 12.77-8.768 20.768 0 8.004 2.92 14.928 8.768 20.769 5.842 5.848 12.766 8.768 20.77 8.768 7.997 0.001 14.92-2.92 20.768-8.768z m118.15 0c5.842-5.841 8.77-12.765 8.77-20.77 0-7.996-2.928-14.92-8.77-20.767-5.848-5.842-12.771-8.77-20.768-8.77-8.005 0-14.928 2.928-20.768 8.77-5.85 5.848-8.77 12.77-8.77 20.768 0 8.004 2.92 14.928 8.77 20.769 5.84 5.848 12.763 8.768 20.768 8.768 7.997 0.001 14.92-2.92 20.768-8.768z" p-id="1904" fill="#D8AE0F"></path></svg>