<?xml version="1.0" encoding="utf-8"?>
<!-- Generator: Adobe Illustrator 22.1.0, SVG Export Plug-In . SVG Version: 6.00 Build 0)  -->
<svg version="1.1" id="Layer_1" xmlns="http://www.w3.org/2000/svg" xmlns:xlink="http://www.w3.org/1999/xlink" x="0px" y="0px"
	 viewBox="0 0 300 300" style="enable-background:new 0 0 300 300;" xml:space="preserve">
<style type="text/css">
	.st0{fill:#E65135;}
</style>
<g>
	<path class="st0" d="M150.4,27.4c-67.4,0-122,54.9-122,122.6c0,67.7,54.6,122.6,122,122.6c67.4,0,122-54.9,122-122.6
		C272.4,82.3,217.8,27.4,150.4,27.4z M150.4,299.9c-82.8,0-150-67.1-150-150S67.6,0,150.4,0c82.8,0,150,67.1,150,150
		C300.4,232.8,233.2,299.9,150.4,299.9z"/>
	<g>
		<path class="st0" d="M171.5,231c-5.9,5.7-13,8.6-21.3,8.6c-8.6,0-15.7-2.8-21.3-8.4c-5.6-5.6-8.4-12.7-8.4-21.3
			c0-8.4,2.9-15.5,8.7-21.3c5.8-5.8,12.8-8.7,21-8.7c8.2,0,15.3,3,21.2,8.9c5.9,6,8.9,13,8.9,21.2
			C180.3,218.3,177.3,225.2,171.5,231z"/>
		<path class="st0" d="M183.5,154.9c-5,2.5-8.1,4.7-9.2,6.5c-1.1,1.8-1.6,5.8-1.6,11.8h-46.6v-7.9c0-10.5,1.2-18.2,3.5-23.2
			c2.3-5,6.6-8.9,12.8-11.6l8.5-3.8c6.5-2.9,9.7-6.9,9.7-12.1c0-3-1.1-5.6-3.1-7.7c-2.1-2.1-4.7-3.1-7.7-3.1
			c-8.2,0-12.3,5.7-12.3,17.1H94.2c0-15.3,3.5-27.7,10.6-37.3c5.2-7.1,11.9-12.8,20.2-17c8.3-4.2,16.9-6.3,25.8-6.3
			c15.8,0,29,5.2,39.8,15.7s16.2,23.4,16.2,38.8C206.7,133.8,198.9,147.2,183.5,154.9z"/>
	</g>
</g>
</svg>
