<?xml version="1.0" standalone="no"?><!DOCTYPE svg PUBLIC "-//W3C//DTD SVG 1.1//EN" "http://www.w3.org/Graphics/SVG/1.1/DTD/svg11.dtd"><svg class="icon" width="1024px" height="1024.00px" viewBox="0 0 1024 1024" version="1.1" xmlns="http://www.w3.org/2000/svg"><path fill="#8a8a8a" d="M483.556 622.933v173.511A28.444 28.444 0 0 0 512 824.89h56.889a28.444 28.444 0 0 0 0-56.889h-28.445v-28.444h28.445a28.444 28.444 0 0 0 0-56.89h-28.445v-59.733A142.28 142.28 0 0 0 512 341.333a142.222 142.222 0 0 0-28.444 281.6z m-312.89-142.336H85.334c-25.827 0-38.286-31.601-19.399-49.209L434.347 87.467a113.778 113.778 0 0 1 155.25 0l368.44 343.893c18.887 17.607 6.429 49.209-19.399 49.209h-85.333v401.209a56.889 56.889 0 0 1-56.889 56.889h-568.86a56.889 56.889 0 0 1-56.89-56.89v-401.18zM512 568.89a85.333 85.333 0 1 1 0-170.667 85.333 85.333 0 0 1 0 170.667z"  /></svg>