<?xml version="1.0" standalone="no"?><!DOCTYPE svg PUBLIC "-//W3C//DTD SVG 1.1//EN" "http://www.w3.org/Graphics/SVG/1.1/DTD/svg11.dtd"><svg t="1527219998561" class="icon" style="" viewBox="0 0 1024 1024" version="1.1" xmlns="http://www.w3.org/2000/svg" p-id="1297" xmlns:xlink="http://www.w3.org/1999/xlink" width="200" height="200"><defs><style type="text/css"></style></defs><path d="M767.86232889 70.96661333C689.21116445 25.17333333 604.58666667 2.27555555 512 2.27555555s-177.21002667 22.89777778-255.86119111 68.69105778c-78.63864889 44.80455111-140.36764445 106.52216889-186.16092444 185.17333334C25.17219555 334.78883555 2.27555555 419.41333333 2.27555555 512s22.89777778 177.21002667 67.7023289 255.86232889c45.79328 78.63978667 107.52 140.36764445 186.16092444 186.16092444 78.65116445 44.80568889 163.27566222 67.70232889 255.86119111 67.70232889s177.21002667-22.89664 255.86232889-67.70232889c78.65002667-45.79328 140.36764445-107.52 185.17219556-186.16092444 45.79328-78.65116445 68.69105778-163.27566222 68.69105777-255.86232889s-22.89664-177.21002667-68.69105777-255.86119111c-44.80568889-78.65002667-106.52216889-140.36764445-185.17333334-185.17219556zM512 959.00785778c-246.90005333 0-446.00888889-201.10677333-446.00888889-447.00785778 0.99783111-183.18449778 110.50780445-345.46005333 272.78449778-410.16433778 163.26428445-75.66449778 372.33322667-26.88341333 488.81550222 94.57436445 121.45777778 116.48113778 170.23772445 325.55008 94.57436444 488.81550222C857.46005333 847.50108445 695.18449778 958.01002667 512 959.01013333z m223.00444445-478.86449778H543.85777778V288.99555555c0-40.82005333-63.71555555-40.82005333-63.71555556 0v191.14666667H288.99555555c-40.81891555 0-40.81891555 63.71555555 0 63.71555556h191.14666667v191.14666667c0 40.82005333 63.71669333 40.82005333 63.71669333 0v-191.14666667h191.14666667c40.81777778 0 40.81777778-63.71555555-0.00113777-63.71555556z" fill="#8a8a8a" p-id="1298"></path></svg>