<?xml version="1.0" standalone="no"?><!DOCTYPE svg PUBLIC "-//W3C//DTD SVG 1.1//EN" "http://www.w3.org/Graphics/SVG/1.1/DTD/svg11.dtd"><svg class="icon" width="1024px" height="1024.00px" viewBox="0 0 1024 1024" version="1.1" xmlns="http://www.w3.org/2000/svg"><path fill="#8a8a8a" d="M78.769231 0h315.076923a78.769231 78.769231 0 0 1 78.769231 78.769231v315.076923a78.769231 78.769231 0 0 1-78.769231 78.769231H78.769231a78.769231 78.769231 0 0 1-78.769231-78.769231V78.769231a78.769231 78.769231 0 0 1 78.769231-78.769231z m78.769231 118.153846a39.384615 39.384615 0 0 0-39.384616 39.384616v157.538461a39.384615 39.384615 0 0 0 39.384616 39.384615h157.538461a39.384615 39.384615 0 0 0 39.384615-39.384615V157.538462a39.384615 39.384615 0 0 0-39.384615-39.384616H157.538462z m472.615384-118.153846h315.076923a78.769231 78.769231 0 0 1 78.769231 78.769231v315.076923a78.769231 78.769231 0 0 1-78.769231 78.769231h-315.076923a78.769231 78.769231 0 0 1-78.769231-78.769231V78.769231a78.769231 78.769231 0 0 1 78.769231-78.769231z m78.769231 118.153846a39.384615 39.384615 0 0 0-39.384615 39.384616v157.538461a39.384615 39.384615 0 0 0 39.384615 39.384615h157.538461a39.384615 39.384615 0 0 0 39.384616-39.384615V157.538462a39.384615 39.384615 0 0 0-39.384616-39.384616h-157.538461zM78.769231 551.384615h315.076923a78.769231 78.769231 0 0 1 78.769231 78.769231v315.076923a78.769231 78.769231 0 0 1-78.769231 78.769231H78.769231a78.769231 78.769231 0 0 1-78.769231-78.769231v-315.076923a78.769231 78.769231 0 0 1 78.769231-78.769231z m78.769231 118.153847a39.384615 39.384615 0 0 0-39.384616 39.384615v157.538461a39.384615 39.384615 0 0 0 39.384616 39.384616h157.538461a39.384615 39.384615 0 0 0 39.384615-39.384616v-157.538461a39.384615 39.384615 0 0 0-39.384615-39.384615H157.538462z m807.384615-118.153847a59.076923 59.076923 0 0 1 59.076923 59.076923v354.461539a59.076923 59.076923 0 0 1-118.153846 0v-354.461539a59.076923 59.076923 0 0 1 59.076923-59.076923z m-315.076923 0a59.076923 59.076923 0 0 1 59.076923 59.076923v354.461539a59.076923 59.076923 0 0 1-118.153846 0v-354.461539a59.076923 59.076923 0 0 1 59.076923-59.076923z m157.538461 0a59.076923 59.076923 0 0 1 59.076923 59.076923v78.769231a59.076923 59.076923 0 0 1-118.153846 0v-78.769231a59.076923 59.076923 0 0 1 59.076923-59.076923z m0 236.307693a59.076923 59.076923 0 0 1 59.076923 59.076923v118.153846a59.076923 59.076923 0 0 1-118.153846 0v-118.153846a59.076923 59.076923 0 0 1 59.076923-59.076923z"  /></svg>