<?xml version="1.0" standalone="no"?><!DOCTYPE svg PUBLIC "-//W3C//DTD SVG 1.1//EN" "http://www.w3.org/Graphics/SVG/1.1/DTD/svg11.dtd"><svg class="icon" width="1024px" height="1024.00px" viewBox="0 0 1024 1024" version="1.1" xmlns="http://www.w3.org/2000/svg"><path fill="#8a8a8a" d="M985.6 627.2C928 595.2 684.8 774.4 640 774.4c0 0-83.2 25.6-198.4-44.8-115.2-64-198.4-128-198.4-128s-76.8-44.8-166.4 12.8C38.4 640 0 659.2 0 659.2v326.4s70.4-83.2 166.4-83.2S480 1004.8 480 1004.8s83.2 38.4 147.2 0l377.6-281.6c25.6-12.8 32-70.4-19.2-96z m-403.2 57.6c185.6 0 339.2-153.6 339.2-339.2S768 6.4 582.4 6.4 243.2 153.6 243.2 339.2s153.6 345.6 339.2 345.6zM473.6 147.2l115.2 153.6L704 147.2h64l-140.8 192h102.4c6.4 0 6.4 6.4 6.4 6.4v19.2c0 6.4-6.4 6.4-6.4 6.4H608V416h115.2c6.4 0 6.4 6.4 6.4 6.4V448c0 6.4-6.4 6.4-6.4 6.4H608v70.4c0 6.4-6.4 6.4-12.8 6.4h-25.6c-6.4 0-12.8-6.4-12.8-6.4v-70.4H448c-6.4 0-6.4 0-6.4-6.4v-19.2c0-6.4 6.4-6.4 6.4-6.4h115.2v-51.2H448c-6.4 0-6.4-6.4-6.4-6.4v-19.2c0-6.4 6.4-6.4 6.4-6.4h102.4l-140.8-192h64z"  /></svg>