<?xml version="1.0" standalone="no"?><!DOCTYPE svg PUBLIC "-//W3C//DTD SVG 1.1//EN" "http://www.w3.org/Graphics/SVG/1.1/DTD/svg11.dtd"><svg class="icon" width="1024px" height="1024.00px" viewBox="0 0 1024 1024" version="1.1" xmlns="http://www.w3.org/2000/svg"><path fill="#8a8a8a" d="M482.466333 328.625077l-321.998459 0.426106c-35.263622 0.026568-63.659473-28.263011-63.845447-63.353943l-0.132839-201.531958c0.053136-35.129761 28.370304-63.500066 63.526634-63.526634l354.253791-0.638649C604.889653 0.026568 678.423145 73.319927 678.690866 164.11328c0.131817 69.221336-42.661728 128.369394-103.288386 152.628845L575.40248 182.649418c2.235781-5.694702 3.565192-11.856384 3.565192-18.350163-0.025546-27.637647-22.568309-50.233546-50.24683-50.087423-27.650931 0.014306-50.166105 22.556047-50.166105 50.233546 0.026568 6.83916 1.410136 13.347245 3.911595 19.281057L482.466333 328.625077zM509.851586 181.665388l0 243.887135c0 10.672074 8.624311 19.308647 19.295363 19.308647 10.672074 0 19.321931-8.635551 19.321931-19.308647L548.46888 181.665388c0-10.672074-8.649857-19.308647-19.321931-19.308647C518.476919 162.356741 509.851586 170.992292 509.851586 181.665388zM882.816249 908.084765l40.611921-29.022237-209.129322-293.242922c30.951467-54.385273 29.753873-124.072566-8.943124-178.364852-31.217145-43.606928-79.760571-67.371809-129.582316-68.943396l0 87.040143 0 2.116226c8.170615 20.904758 1.649246 45.429886-17.405985 59.041788-22.567288 16.167518-53.944861 10.884616-70.045959-11.643842-10.459532-14.558123-11.81551-32.747858-5.48216-48.170455l0-66.322382c-30.872785 9.900586-58.551305 27.971788-80.187699 53.201985-30.765492 35.913511-45.695564 81.663233-42.023079 128.809806 4.97635 65.215732 44.631831 121.278862 104.165123 147.972331L472.674062 793.419237l21.476987 24.231861 7.238699 85.084346-17.246578 29.794746 6.467211 65.855402 72.096787 25.614408 35.368871-3.179959 59.429064-36.021826-24.060193-269.1439 28.824 8.981954 28.476576 39.840434 0.825645 34.690371 12.507295 17.458099 30.125822 9.048374 29.302221 40.745782 0.665216 34.331706 16.687633 23.4195 78.747929 0L698.063889 698.382191l23.049595-16.460785L882.816249 908.084765zM596.826331 994.486259l-24.405574-273.109652-38.482411 3.433375 24.404552 273.056516-46.094081-16.38006-4.312155-43.79188 17.166875-29.661907-8.517018-99.98785-21.397283-24.152158-8.383157-109.302923-6.679754-2.686412c-54.98407-22.090089-91.923506-72.310351-96.394046-131.086461-3.193243-40.984892 9.793293-80.745622 36.539898-111.962767 1.943535-2.288917 4.072024-4.365291 6.148398-6.508085-30.738924 54.318853-29.514763 123.701639 9.23537 177.820212 37.818217 52.987399 101.291715 76.847311 161.598537 67.026428l9.820883 13.745762 26.052776 291.54054L596.826331 994.486259z" /></svg>