<?xml version="1.0" standalone="no"?><!DOCTYPE svg PUBLIC "-//W3C//DTD SVG 1.1//EN" "http://www.w3.org/Graphics/SVG/1.1/DTD/svg11.dtd"><svg t="1525272012348" class="icon" style="" viewBox="0 0 1024 1024" version="1.1" xmlns="http://www.w3.org/2000/svg" p-id="7648" xmlns:xlink="http://www.w3.org/1999/xlink" width="48" height="48"><defs><style type="text/css"></style></defs><path d="M660.563508 709.593852C700.821155 691.006812 737.070629 665.079468 767.850222 633.514438 833.346383 566.150028 873.859515 473.312208 873.859515 371.089224 873.859515 268.897744 833.346383 176.250377 767.850222 108.958996 702.173966 41.555922 611.700362 0 512.108895 0 412.370838 0 321.897235 41.555922 256.401074 108.847303 190.801603 175.915295 150.287076 268.601324 150.287076 371.089224 150.287076 473.575693 190.801603 566.374848 256.183285 633.514438 287.000572 665.085197 323.282156 691.006812 363.539803 709.593852 285.577957 734.581819 215.77765 778.603602 159.32955 836.39669 108.094447 889.133475 67.977803 952.834892 42.744876 1023.829362L120.968218 1023.829362C141.282723 978.346965 180.873703 926.439172 214.860115 891.428809 288.776093 815.796173 406.132572 755.737139 518.95897 755.737139 631.753259 755.737139 743.251792 815.796173 817.130077 891.428809 851.193273 926.439172 885.353781 978.346965 905.738089 1023.829362L981.255124 1023.829362C956.202291 952.834892 916.12474 889.133475 864.921747 836.581415 808.363355 778.603602 738.603536 734.581819 660.563508 709.593852ZM223.806756 366.47166C223.806756 285.762677 260.556634 212.986051 312.023262 160.196516 371.569912 98.864474 439.065316 75.25829 517.988713 75.25829 596.793616 75.25829 668.09857 112.488855 719.606216 165.314229 771.191336 218.311005 802.974589 291.325701 802.974589 372.241923 802.974589 453.150352 771.191336 526.373845 719.802183 579.077682 667.980077 631.988759 596.634108 675.878426 517.988713 675.878426 439.302301 675.878426 363.649399 637.819824 312.023262 584.902516 260.556634 532.033512 223.806756 453.028819 223.806756 372.241926L223.806756 366.47166Z" fill="#8a8a8a" p-id="7649"></path></svg>