<?xml version="1.0" standalone="no"?><!DOCTYPE svg PUBLIC "-//W3C//DTD SVG 1.1//EN" "http://www.w3.org/Graphics/SVG/1.1/DTD/svg11.dtd"><svg t="1525272025366" class="icon" style="" viewBox="0 0 1024 1024" version="1.1" xmlns="http://www.w3.org/2000/svg" p-id="7960" xmlns:xlink="http://www.w3.org/1999/xlink" width="48" height="48"><defs><style type="text/css"></style></defs><path d="M1023.998 388.754c0-190.797-196.8-346.022-438.699-346.022-127.601 0-248.293 43.69-331.902 119.995 39.512-8.591 80.397-13.726 121.598-15.271 62.325-32.168 135.04-49.17 210.304-49.17 208.512 0 378.152 130.304 378.152 290.467 0 33.613-7.42 66.566-22.056 97.951 7.986 29.683 11.88 60.371 11.574 91.105C999.452 521.596 1024 456.294 1024 388.754L1023.998 388.754z" fill="#8a8a8a" p-id="7961"></path><path d="M438.717 491.81c-34.003 0-61.667 25.438-61.667 56.705s27.664 56.704 61.667 56.704c34.022 0 61.701-25.437 61.701-56.704S472.738 491.81 438.717 491.81L438.717 491.81z" fill="#8a8a8a" p-id="7962"></path><path d="M218.801 491.81c-34.005 0-61.67 25.438-61.67 56.705s27.665 56.704 61.67 56.704c34.02 0 61.698-25.437 61.698-56.704S252.821 491.81 218.801 491.81z" fill="#8a8a8a" p-id="7963"></path><path d="M658.652 491.81c-34.021 0-61.698 25.438-61.698 56.705s27.677 56.704 61.698 56.704c34.005 0 61.669-25.437 61.669-56.704S692.657 491.81 658.652 491.81z" fill="#8a8a8a" p-id="7964"></path><path d="M438.688 202.497C196.795 202.497 0 357.72 0 548.515c0 189.429 182.812 311.781 350.065 338.644l64.009 82.503c11.956 15.536 37.299 15.417 49.292-0.001l63.98-82.533c167.263-26.864 350.045-149.166 350.045-338.613C877.389 357.72 680.589 202.497 438.688 202.497L438.688 202.497zM505.532 834.114c-8.071 1.077-15.411 5.214-20.142 11.348l-46.702 60.169-46.687-60.135c-4.727-6.117-12.072-10.254-20.155-11.351C191.468 809.347 60.55 689.223 60.55 548.516c0-160.164 169.631-290.468 378.137-290.468 208.514 0 378.155 130.302 378.155 290.468C816.842 689.236 685.918 809.348 505.532 834.114L505.532 834.114z" fill="#8a8a8a" p-id="7965"></path></svg>